<mxfile host="app.diagrams.net" agent="Mozilla/5.0 (Windows NT 10.0; Win64; x64; rv:137.0) Gecko/20100101 Firefox/137.0" version="26.2.12">
  <diagram name="Page-1" id="N2Rm3CI2Fw_OLikdMe9v">
    <mxGraphModel dx="1428" dy="751" grid="1" gridSize="10" guides="1" tooltips="1" connect="1" arrows="1" fold="1" page="1" pageScale="1" pageWidth="827" pageHeight="1169" math="0" shadow="0">
      <root>
        <mxCell id="0" />
        <mxCell id="1" parent="0" />
        <mxCell id="m8dlrcQLnKcXfo8TvbvZ-22" value="" style="curved=1;startArrow=none;endArrow=block;exitX=0.7;exitY=1;entryX=0.71;entryY=0;rounded=0;" edge="1" parent="1" source="m8dlrcQLnKcXfo8TvbvZ-12">
          <mxGeometry relative="1" as="geometry">
            <Array as="points">
              <mxPoint x="980" y="400" />
            </Array>
            <mxPoint x="808.5700000000002" y="487" as="targetPoint" />
          </mxGeometry>
        </mxCell>
        <mxCell id="m8dlrcQLnKcXfo8TvbvZ-36" value="&amp;lt;&amp;lt;device&amp;gt;&amp;gt;&lt;br&gt;Client (Navigateur)" style="shape=cube;whiteSpace=wrap;html=1;" vertex="1" parent="1">
          <mxGeometry x="40" y="40" width="180" height="150" as="geometry" />
        </mxCell>
        <mxCell id="m8dlrcQLnKcXfo8TvbvZ-37" value="&lt;br&gt;&lt;div&gt;&amp;lt;&amp;lt;device&amp;gt;&amp;gt;&lt;/div&gt;Serveur Frontend" style="shape=cube;whiteSpace=wrap;html=1;fillColor=#ffe6cc;verticalAlign=top;strokeColor=#d79b00;" vertex="1" parent="1">
          <mxGeometry x="300" y="40" width="220" height="180" as="geometry" />
        </mxCell>
        <mxCell id="m8dlrcQLnKcXfo8TvbvZ-38" value="&lt;br&gt;&lt;div&gt;&amp;lt;&amp;lt;device&amp;gt;&amp;gt;&lt;/div&gt;Serveur Backend" style="shape=cube;whiteSpace=wrap;html=1;fillColor=#fff9c4;verticalAlign=top;" vertex="1" parent="1">
          <mxGeometry x="300" y="290" width="220" height="180" as="geometry" />
        </mxCell>
        <mxCell id="m8dlrcQLnKcXfo8TvbvZ-39" value="&amp;lt;&amp;lt;database&amp;gt;&amp;gt;&lt;br&gt;&lt;div&gt;Base de DonnÃ©es &lt;br&gt;&lt;/div&gt;" style="shape=cylinder;whiteSpace=wrap;html=1;fillColor=#f0f4c3;verticalAlign=top;" vertex="1" parent="1">
          <mxGeometry x="580" y="280" width="200" height="200" as="geometry" />
        </mxCell>
        <mxCell id="m8dlrcQLnKcXfo8TvbvZ-40" value="&amp;lt;&amp;lt;device&amp;gt;&amp;gt;&lt;br&gt;&lt;div&gt;RabbitMQ&lt;/div&gt;&lt;div&gt;&amp;nbsp;(WebSocket Broker)&lt;/div&gt;" style="shape=cube;whiteSpace=wrap;html=1;fillColor=#ffe0b2" vertex="1" parent="1">
          <mxGeometry x="580" y="40" width="200" height="120" as="geometry" />
        </mxCell>
        <mxCell id="m8dlrcQLnKcXfo8TvbvZ-41" value="&lt;&lt;external&gt;&gt;&#xa;Stripe (Paiement)" style="shape=ellipse;whiteSpace=wrap;html=1;fillColor=#fce4ec" vertex="1" parent="1">
          <mxGeometry x="40" y="325" width="200" height="80" as="geometry" />
        </mxCell>
        <mxCell id="m8dlrcQLnKcXfo8TvbvZ-42" style="endArrow=block;html=1;" edge="1" parent="1" source="m8dlrcQLnKcXfo8TvbvZ-36" target="m8dlrcQLnKcXfo8TvbvZ-37">
          <mxGeometry relative="1" as="geometry" />
        </mxCell>
        <mxCell id="m8dlrcQLnKcXfo8TvbvZ-53" value="HTTPS" style="edgeLabel;html=1;align=center;verticalAlign=middle;resizable=0;points=[];" vertex="1" connectable="0" parent="m8dlrcQLnKcXfo8TvbvZ-42">
          <mxGeometry x="-0.075" y="-2" relative="1" as="geometry">
            <mxPoint as="offset" />
          </mxGeometry>
        </mxCell>
        <mxCell id="m8dlrcQLnKcXfo8TvbvZ-43" style="endArrow=block;html=1;" edge="1" parent="1" source="m8dlrcQLnKcXfo8TvbvZ-37" target="m8dlrcQLnKcXfo8TvbvZ-38">
          <mxGeometry relative="1" as="geometry" />
        </mxCell>
        <mxCell id="m8dlrcQLnKcXfo8TvbvZ-50" value="REST" style="edgeLabel;html=1;align=center;verticalAlign=middle;resizable=0;points=[];" vertex="1" connectable="0" parent="m8dlrcQLnKcXfo8TvbvZ-43">
          <mxGeometry x="0.04" y="2" relative="1" as="geometry">
            <mxPoint as="offset" />
          </mxGeometry>
        </mxCell>
        <mxCell id="m8dlrcQLnKcXfo8TvbvZ-44" style="endArrow=block;html=1;" edge="1" parent="1" source="m8dlrcQLnKcXfo8TvbvZ-38" target="m8dlrcQLnKcXfo8TvbvZ-39">
          <mxGeometry relative="1" as="geometry" />
        </mxCell>
        <mxCell id="m8dlrcQLnKcXfo8TvbvZ-51" value="JPA" style="edgeLabel;html=1;align=center;verticalAlign=middle;resizable=0;points=[];" vertex="1" connectable="0" parent="m8dlrcQLnKcXfo8TvbvZ-44">
          <mxGeometry x="-0.2" y="2" relative="1" as="geometry">
            <mxPoint as="offset" />
          </mxGeometry>
        </mxCell>
        <mxCell id="m8dlrcQLnKcXfo8TvbvZ-45" style="endArrow=block;html=1;dashed=1;startArrow=classic;startFill=1;" edge="1" parent="1" source="m8dlrcQLnKcXfo8TvbvZ-38" target="m8dlrcQLnKcXfo8TvbvZ-40">
          <mxGeometry relative="1" as="geometry" />
        </mxCell>
        <mxCell id="m8dlrcQLnKcXfo8TvbvZ-49" value="websocket" style="edgeLabel;html=1;align=center;verticalAlign=middle;resizable=0;points=[];" vertex="1" connectable="0" parent="m8dlrcQLnKcXfo8TvbvZ-45">
          <mxGeometry x="-0.3247" y="-3" relative="1" as="geometry">
            <mxPoint as="offset" />
          </mxGeometry>
        </mxCell>
        <mxCell id="m8dlrcQLnKcXfo8TvbvZ-46" style="endArrow=open;html=1;dashed=1;" edge="1" parent="1" source="m8dlrcQLnKcXfo8TvbvZ-38" target="m8dlrcQLnKcXfo8TvbvZ-41">
          <mxGeometry relative="1" as="geometry" />
        </mxCell>
        <mxCell id="m8dlrcQLnKcXfo8TvbvZ-52" value="HTTPS" style="edgeLabel;html=1;align=center;verticalAlign=middle;resizable=0;points=[];" vertex="1" connectable="0" parent="m8dlrcQLnKcXfo8TvbvZ-46">
          <mxGeometry x="0.0333" relative="1" as="geometry">
            <mxPoint as="offset" />
          </mxGeometry>
        </mxCell>
        <mxCell id="m8dlrcQLnKcXfo8TvbvZ-54" value="&lt;div align=&quot;center&quot;&gt;&amp;lt;&amp;lt;executionEnvironment&amp;gt;&amp;gt;&lt;/div&gt;&lt;div align=&quot;center&quot;&gt;Docker&lt;/div&gt;" style="verticalAlign=top;align=center;spacingTop=8;spacingLeft=2;spacingRight=12;shape=cube;size=10;direction=east;fontStyle=0;html=1;whiteSpace=wrap;fillColor=#dae8fc;strokeColor=#6c8ebf;" vertex="1" parent="1">
          <mxGeometry x="330" y="90" width="180" height="120" as="geometry" />
        </mxCell>
        <mxCell id="m8dlrcQLnKcXfo8TvbvZ-47" value="&lt;div&gt;&amp;lt;&amp;lt;artifact&amp;gt;&amp;gt;&lt;/div&gt;&lt;div&gt;Angular&lt;/div&gt;&lt;div&gt;interface&lt;/div&gt;" style="shape=module;align=left;spacingLeft=20;align=center;verticalAlign=top;whiteSpace=wrap;html=1;fillColor=#f8cecc;strokeColor=#b85450;" vertex="1" parent="1">
          <mxGeometry x="339" y="140" width="150" height="60" as="geometry" />
        </mxCell>
        <mxCell id="m8dlrcQLnKcXfo8TvbvZ-58" value="&lt;div align=&quot;center&quot;&gt;&amp;lt;&amp;lt;executionEnvironment&amp;gt;&amp;gt;&lt;/div&gt;&lt;div align=&quot;center&quot;&gt;Docker&lt;/div&gt;" style="verticalAlign=top;align=center;spacingTop=8;spacingLeft=2;spacingRight=12;shape=cube;size=10;direction=east;fontStyle=0;html=1;whiteSpace=wrap;fillColor=#dae8fc;strokeColor=#6c8ebf;" vertex="1" parent="1">
          <mxGeometry x="330" y="340" width="180" height="120" as="geometry" />
        </mxCell>
        <mxCell id="m8dlrcQLnKcXfo8TvbvZ-59" value="&lt;div align=&quot;center&quot;&gt;&amp;lt;&amp;lt;executionEnvironment&amp;gt;&amp;gt;&lt;/div&gt;&lt;div align=&quot;center&quot;&gt;Docker&lt;/div&gt;" style="verticalAlign=top;align=center;spacingTop=8;spacingLeft=2;spacingRight=12;shape=cube;size=10;direction=east;fontStyle=0;html=1;whiteSpace=wrap;fillColor=#dae8fc;strokeColor=#6c8ebf;" vertex="1" parent="1">
          <mxGeometry x="600" y="360" width="150" height="110" as="geometry" />
        </mxCell>
        <mxCell id="m8dlrcQLnKcXfo8TvbvZ-48" value="&lt;div&gt;&amp;lt;&amp;lt;artifact&amp;gt;&amp;gt;&lt;/div&gt;&lt;div&gt;Spring-boot&lt;/div&gt;&lt;div&gt;application&lt;/div&gt;" style="shape=module;align=left;spacingLeft=20;align=center;verticalAlign=top;whiteSpace=wrap;html=1;fillColor=#d5e8d4;strokeColor=#82b366;" vertex="1" parent="1">
          <mxGeometry x="339" y="390" width="150" height="60" as="geometry" />
        </mxCell>
        <mxCell id="m8dlrcQLnKcXfo8TvbvZ-57" value="&lt;div&gt;&amp;lt;&amp;lt;artifact&amp;gt;&amp;gt;&lt;/div&gt;mySQL" style="shape=module;align=left;spacingLeft=20;align=center;verticalAlign=top;whiteSpace=wrap;html=1;fillColor=#e1d5e7;strokeColor=#9673a6;" vertex="1" parent="1">
          <mxGeometry x="610" y="400" width="130" height="60" as="geometry" />
        </mxCell>
      </root>
    </mxGraphModel>
  </diagram>
</mxfile>
